<svg width="29" height="30" fill="none" xmlns="http://www.w3.org/2000/svg"><path d="M14.488 29.748C6.434 29.783-.188 23.053.004 14.833.184 7.004 6.644.537 14.674.625c7.955.088 14.536 6.736 14.32 14.967-.203 7.794-6.61 14.197-14.506 14.156zM1.768 15.207c.063 7.32 5.975 12.958 12.958 12.835 6.762-.123 12.494-5.655 12.494-12.853 0-7.32-5.959-12.98-12.965-12.847-6.762.123-12.441 5.673-12.488 12.865z" fill="#F4F4F4"/><path d="M11.462 25.437v-10.3h-2.24v-3.47c.099-.006.197-.018.302-.018.541 0 1.088-.012 1.63.006.238.006.32-.059.314-.304-.012-.888-.012-1.77-.006-2.658.006-1 .285-1.905.995-2.63a3.794 3.794 0 012.52-1.138c1.536-.088 3.078-.076 4.62-.106.017 0 .035.018.07.035v3.564c-.11.006-.215.012-.314.012h-2.095c-.704.006-1.117.426-1.117 1.122 0 .66 0 1.326.005 1.986 0 .017.012.035.03.1h3.538c-.152 1.185-.291 2.319-.443 3.493H16.13v10.317c-1.565-.011-3.09-.011-4.667-.011z" fill="#F4F4F4"/></svg>