<svg width="29" height="30" fill="none" xmlns="http://www.w3.org/2000/svg"><path d="M28.986 15.181c0 2.042-.041 4.09.011 6.13.088 3.615-2.174 6.407-5.055 7.651a9.114 9.114 0 01-3.63.763c-3.934.006-7.874.058-11.807-.018-2.964-.059-5.401-1.302-7.149-3.755C.438 24.663 0 23.195 0 21.605V8.992C0 5.56 1.666 3.16 4.623 1.6 5.91.925 7.306.638 8.762.632c3.817 0 7.64-.024 11.456.011 2.964.024 5.436 1.162 7.26 3.556 1.017 1.337 1.508 2.874 1.508 4.564v6.418zm-26.83 0v6.454c0 .962.223 1.865.72 2.68 1.303 2.142 3.273 3.186 5.716 3.227 3.922.059 7.85.024 11.778.012.965 0 1.9-.2 2.77-.616 2.374-1.138 3.7-2.95 3.689-5.673-.023-4.165-.006-8.33-.006-12.496 0-1.18-.333-2.259-1.029-3.21-1.344-1.824-3.203-2.721-5.424-2.745-3.916-.047-7.832-.017-11.748-.012-.836 0-1.643.17-2.426.464-2.151.804-4.15 2.84-4.057 5.837.07 2.03.018 4.054.018 6.078z" fill="#F4F4F4"/><path d="M14.525 21.4c-3.77 0-6.81-3.016-6.815-6.77-.006-3.697 3.057-6.724 6.803-6.724 3.759-.006 6.81 3.016 6.816 6.741 0 3.72-3.046 6.746-6.804 6.752zm0-2.171c2.566 0 4.647-2.06 4.641-4.594-.006-2.51-2.087-4.564-4.641-4.564-2.566 0-4.659 2.047-4.659 4.576.006 2.534 2.093 4.588 4.659 4.582zm7.593-13.376c.789 0 1.432.674 1.432 1.501-.006.828-.655 1.497-1.444 1.49-.777-.005-1.414-.674-1.414-1.484-.006-.827.637-1.507 1.426-1.507z" fill="#F4F4F4"/></svg>