<svg width="29" height="30" fill="none" xmlns="http://www.w3.org/2000/svg"><path d="M14.494 29.748c-8.06.035-14.682-6.695-14.49-14.91C.18 7.012 6.644.527 14.697.626c7.943.1 14.513 6.742 14.298 14.962-.198 7.793-6.605 14.196-14.501 14.16zm12.738-14.559c-.058-7.314-5.947-12.934-12.89-12.852-6.785.082-12.575 5.632-12.563 12.87.012 7.314 5.947 12.928 12.89 12.835 6.773-.088 12.505-5.626 12.563-12.853z" fill="#F4F4F4"/><path d="M13.493 18.905c-.146.63-.315 1.256-.443 1.887-.308 1.56-.867 3.014-1.751 4.335-.151.222-.303.45-.466.666-.04.052-.15.128-.174.11-.064-.04-.134-.128-.134-.198-.052-.981-.14-1.957-.128-2.939.017-1.302.425-2.541.692-3.803.17-.794.338-1.595.507-2.39.093-.443.215-.887.285-1.337a1.42 1.42 0 00-.03-.649c-.348-1.098-.354-2.179.105-3.242.227-.532.57-.982 1.13-1.221.983-.42 1.955.163 2.065 1.244.082.766-.104 1.484-.302 2.209-.227.853-.5 1.7-.646 2.564-.221 1.32.89 2.296 2.188 2.004.896-.198 1.454-.812 1.897-1.548.57-.964.884-2.021.977-3.131.053-.637.105-1.28.088-1.922-.03-.965-.326-1.852-.943-2.606-.611-.742-1.408-1.192-2.34-1.379-1.134-.228-2.246-.158-3.328.298a4.916 4.916 0 00-2.363 2.05 5.852 5.852 0 00-.808 3.968c.075.531.267 1.034.617 1.454.203.252.285.508.162.83-.087.234-.11.49-.168.736-.093.415-.315.502-.693.316-1.117-.561-1.618-1.56-1.914-2.7-.245-.958-.256-1.933-.093-2.897a7.387 7.387 0 011.5-3.36 7.158 7.158 0 013.394-2.4 8.128 8.128 0 014.125-.328c1.775.321 3.23 1.221 4.289 2.71 1.03 1.456 1.402 3.085 1.24 4.85-.088.917-.233 1.829-.536 2.705-.506 1.478-1.274 2.775-2.619 3.634-.448.286-.96.49-1.472.642-.407.123-.855.152-1.286.152-1.018-.012-1.862-.42-2.479-1.25-.023-.03-.029-.076-.04-.111-.041.017-.076.03-.105.047z" fill="#F4F4F4"/></svg>