<svg width="30" height="30" fill="none" xmlns="http://www.w3.org/2000/svg"><path d="M14.987 30C6.656 30.035-.194 23.202.004 14.857.191 6.909 6.873.343 15.18.432 23.41.52 30.217 7.27 29.995 15.628 29.784 23.54 23.156 30.04 14.987 30zM1.828 15.236c.066 7.433 6.183 13.156 13.406 13.032 6.995-.125 12.925-5.742 12.925-13.05 0-7.431-6.165-13.18-13.412-13.043-6.995.125-12.87 5.76-12.919 13.061z" fill="#000"/><path d="M11.857 25.622V15.165H9.54v-3.523c.102-.006.204-.018.313-.018.56 0 1.125-.012 1.685.006.247.006.331-.06.325-.308a134.88 134.88 0 01-.006-2.7c.006-1.013.295-1.933 1.03-2.668a3.958 3.958 0 012.606-1.157c1.59-.089 3.185-.077 4.78-.107.018 0 .036.018.072.036v3.618c-.114.006-.223.012-.325.012h-2.167c-.728.006-1.156.433-1.156 1.139 0 .67 0 1.346.006 2.017 0 .017.012.035.03.1h3.66c-.156 1.204-.3 2.355-.457 3.547h-3.25v10.475c-1.62-.012-3.197-.012-4.829-.012z" fill="#000"/></svg>