<svg width="30" height="30" fill="none" xmlns="http://www.w3.org/2000/svg"><path d="M14.993 30C6.656 30.035-.194 23.2.004 14.859.184 6.909 6.873.323 15.204.424c8.217.1 15.013 6.847 14.79 15.194-.204 7.915-6.832 14.417-15 14.382zm13.178-14.785c-.06-7.428-6.152-13.136-13.334-13.053-7.02.083-13.009 5.72-12.997 13.07.012 7.429 6.152 13.13 13.334 13.035 7.007-.089 12.936-5.713 12.997-13.052z" fill="#000"/><path d="M13.958 18.988c-.15.641-.325 1.276-.457 1.917-.32 1.584-.897 3.061-1.813 4.402-.156.225-.313.457-.481.676-.042.054-.157.13-.18.113-.067-.041-.14-.13-.14-.202-.053-.996-.144-1.987-.132-2.984.018-1.323.44-2.58.717-3.862l.524-2.427c.096-.45.222-.902.294-1.359a1.429 1.429 0 00-.03-.658c-.36-1.116-.367-2.213.109-3.293.235-.54.59-.997 1.168-1.24 1.017-.427 2.022.166 2.137 1.264.084.777-.109 1.507-.313 2.242-.235.867-.518 1.727-.669 2.605-.228 1.34.921 2.332 2.264 2.035.927-.202 1.505-.825 1.962-1.572a7.3 7.3 0 001.012-3.18c.054-.647.108-1.3.09-1.952-.03-.98-.337-1.881-.975-2.646-.632-.754-1.457-1.21-2.42-1.4-1.174-.232-2.324-.16-3.444.302a5.058 5.058 0 00-2.444 2.082c-.764 1.24-1.047 2.587-.836 4.029.078.54.277 1.05.638 1.477.21.255.295.516.168.843-.09.237-.114.498-.174.747-.097.422-.325.51-.717.32-1.155-.569-1.673-1.583-1.98-2.74-.253-.973-.265-1.964-.097-2.943a7.436 7.436 0 011.554-3.412 7.405 7.405 0 013.51-2.438 8.557 8.557 0 014.267-.332c1.836.326 3.341 1.24 4.437 2.753 1.065 1.477 1.45 3.132 1.282 4.924-.09.931-.24 1.857-.554 2.747-.523 1.501-1.318 2.818-2.709 3.69-.463.291-.993.499-1.523.653-.421.125-.885.154-1.33.154-1.054-.012-1.926-.427-2.564-1.27-.025-.03-.03-.077-.043-.112-.042.018-.078.03-.108.047z" fill="#000"/></svg>